<svg version="1.1" id="Layer_1" xmlns="http://www.w3.org/2000/svg" xmlns:xlink="http://www.w3.org/1999/xlink" x="0px" y="0px"
	 width="100%" viewBox="0 0 512 512" enable-background="new 0 0 512 512" xml:space="preserve">
<path fill="#35495E" opacity="1.000000" stroke="none" 
	d="
M1.000000,209.000000 
	C1.000000,143.644653 1.000000,78.289314 1.335828,12.359017 
	C5.114437,8.189377 8.557219,4.594688 12.000000,1.000000 
	C172.022018,1.000000 332.044037,1.000000 492.645020,1.339525 
	C501.333252,5.038683 505.029694,11.210707 505.013824,19.879314 
	C504.974213,41.501171 505.014130,63.123161 504.997955,84.745079 
	C504.966949,126.157310 504.919220,167.569519 504.623901,209.082275 
	C504.201538,209.254593 504.033661,209.326401 503.411560,209.324615 
	C501.625885,209.222061 500.294342,209.167755 498.962830,209.167725 
	C369.237793,209.163849 239.512741,209.163696 109.787704,209.168976 
	C108.290047,209.169037 106.792397,209.242767 104.810425,209.227524 
	C69.884071,209.115295 35.442036,209.057648 1.000000,209.000000 
M343.762665,174.892227 
	C347.458771,174.626404 351.154877,174.360580 355.708954,174.059128 
	C356.853485,174.069122 357.998016,174.079132 359.796417,174.505585 
	C363.254486,174.585236 366.712555,174.664871 371.085022,174.781799 
	C399.750641,174.800537 428.416351,174.871048 457.081787,174.807404 
	C466.035675,174.787521 469.814514,171.332199 469.830322,163.103424 
	C469.904327,124.604607 469.910736,86.105446 469.822510,47.606689 
	C469.802521,38.875111 466.625305,35.917118 457.986511,35.910862 
	C429.653931,35.890347 401.321320,35.883839 372.988861,35.944801 
	C371.061554,35.948944 369.135529,36.555443 366.356842,36.793373 
	C359.536163,36.836864 352.715485,36.880360 345.252350,36.426434 
	C343.610718,36.252758 341.969269,35.929447 340.327454,35.927662 
	C311.994873,35.896824 283.662292,35.891079 255.329681,35.914604 
	C246.902008,35.921600 244.012161,38.848801 244.007584,47.400822 
	C243.986908,85.899811 243.985489,124.398819 244.008865,162.897812 
	C244.013992,171.331421 247.303787,174.781433 255.833054,174.799210 
	C284.831573,174.859650 313.830383,174.772339 343.762665,174.892227 
M35.801018,86.525856 
	C35.806324,89.517990 35.727753,92.513123 35.834297,95.501648 
	C36.059608,101.821442 39.136208,104.904144 45.459328,105.045753 
	C50.443783,105.157387 55.434029,105.143715 60.419289,105.052994 
	C66.995163,104.933327 70.125526,101.912598 70.368645,95.260918 
	C70.550667,90.280792 70.551537,85.283325 70.369286,80.303230 
	C70.127647,73.700104 67.110992,70.698441 60.418167,70.420883 
	C55.605701,70.221313 50.773529,70.237366 45.959011,70.407753 
	C38.777058,70.661926 35.950581,73.728546 35.807964,81.060638 
	C35.778877,82.556175 35.801941,84.052727 35.801018,86.525856 
M200.064011,139.916412 
	C194.740967,139.915222 189.415070,139.803940 184.095657,139.942352 
	C178.215027,140.095367 175.023865,142.956116 174.724319,148.721786 
	C174.431320,154.360687 174.447296,160.036697 174.717438,165.677750 
	C174.975006,171.056381 177.732437,174.029984 183.100204,174.393997 
	C188.892197,174.786774 194.748550,174.802689 200.542252,174.436325 
	C206.285675,174.073105 209.009399,170.819275 209.158722,164.886887 
	C209.288452,159.733536 209.288559,154.571487 209.153168,149.418335 
	C209.000702,143.615555 206.980713,141.405975 200.064011,139.916412 
M105.072739,164.984512 
	C106.233192,171.771301 108.366081,174.186646 114.450058,174.515533 
	C119.922203,174.811356 125.441612,174.820801 130.908417,174.466507 
	C136.679504,174.092468 139.610077,170.918320 139.851669,165.099655 
	C140.072342,159.784683 140.093155,154.443909 139.842102,149.131516 
	C139.560104,143.163910 136.257019,140.097488 130.237381,139.936447 
	C125.249367,139.803024 120.253632,139.829041 115.263870,139.921722 
	C108.463013,140.048035 105.261192,143.242996 105.088509,150.105988 
	C104.971359,154.761841 105.064537,159.422989 105.072739,164.984512 
M43.167538,140.054565 
	C38.191555,141.126282 35.869183,144.334671 35.831078,149.296417 
	C35.790203,154.619446 35.696083,159.946976 35.859859,165.265305 
	C36.033115,170.891434 38.768143,174.060455 44.326145,174.423752 
	C50.120350,174.802460 55.976475,174.790726 61.772327,174.424438 
	C67.138023,174.085312 69.993248,171.098495 70.263435,165.797714 
	C70.550919,160.157654 70.561890,154.481659 70.289017,148.840927 
	C70.008965,143.051758 66.822159,140.095871 61.014553,139.948792 
	C55.362827,139.805710 49.703903,139.946838 43.167538,140.054565 
M195.400711,105.076111 
	C196.896790,105.071732 198.395386,105.121994 199.888504,105.053352 
	C205.856720,104.778992 208.990692,101.701096 209.147339,95.641045 
	C209.289001,90.159790 209.276657,84.667625 209.106003,79.187317 
	C208.957367,74.413651 206.443069,71.092239 201.606430,70.794090 
	C195.165634,70.397057 188.668686,70.442223 182.221466,70.782608 
	C177.890610,71.011261 175.101303,73.846573 174.891190,78.212257 
	C174.588257,84.506691 174.509949,90.841553 174.868607,97.128769 
	C175.151337,102.084961 178.373199,104.772507 183.463760,105.013695 
	C187.113037,105.186592 190.776245,105.065872 195.400711,105.076111 
M107.641090,73.180893 
	C106.991455,74.328087 105.805946,75.462982 105.779297,76.624474 
	C105.608536,84.067245 105.242455,91.554138 105.871979,98.947212 
	C106.213310,102.955772 109.853157,104.933167 113.938278,105.017242 
	C119.432167,105.130302 124.932777,105.170074 130.425201,105.031403 
	C136.165894,104.886467 139.509262,101.840569 139.813675,96.149742 
	C140.106827,90.669411 140.082870,85.152397 139.832855,79.668152 
	C139.571243,73.929764 136.507736,70.815468 130.679947,70.492043 
	C125.201881,70.188026 119.682777,70.235321 114.203957,70.534729 
	C112.179276,70.645370 110.217941,71.915390 107.641090,73.180893 
M114.944984,31.747463 
	C112.957069,38.138554 115.228813,43.197704 120.914116,43.947083 
	C124.823669,44.462402 128.886505,44.335129 132.827133,43.948135 
	C136.774918,43.560432 139.456085,40.663368 139.404510,36.976368 
	C139.365921,34.217739 137.954117,30.687437 135.921600,28.908478 
	C131.370895,24.925425 119.609772,26.564970 114.944984,31.747463 
M166.010727,27.043638 
	C159.945236,28.373398 156.770859,31.844713 157.308868,36.559467 
	C157.863159,41.416851 161.502808,44.110493 167.748703,44.218330 
	C170.065887,44.258339 172.394058,44.303684 174.701553,44.133827 
	C179.721954,43.764267 182.873505,40.621227 183.034332,36.008770 
	C183.192596,31.469532 180.183136,27.843346 175.319122,27.209278 
	C172.546860,26.847887 169.700226,27.056971 166.010727,27.043638 
M96.047607,33.923054 
	C95.285614,32.484695 94.794861,30.786957 93.712410,29.655058 
	C89.990639,25.763281 76.618919,25.477509 73.311974,29.680227 
	C71.621582,31.828512 70.639992,35.650093 71.304169,38.204094 
	C71.901100,40.499561 74.896149,42.903805 77.361328,43.787876 
	C80.177635,44.797874 83.582191,44.334904 86.722748,44.238663 
	C93.269043,44.038055 95.764717,41.441872 96.047607,33.923054 
M44.999439,44.142311 
	C49.831554,43.606880 52.630436,40.815498 52.863827,36.075905 
	C53.086353,31.556881 50.615788,28.193861 46.176388,27.501648 
	C42.153633,26.874403 37.875103,26.880163 33.854130,27.518644 
	C29.407087,28.224779 27.111553,31.613113 27.171383,36.131077 
	C27.228827,40.468891 30.565561,43.747036 35.169956,44.106823 
	C38.135471,44.338551 41.130478,44.192810 44.999439,44.142311 
z"/>
<path fill="#95A5A5" opacity="1.000000" stroke="none" 
	d="
M1.000000,389.000000 
	C1.000000,364.312439 1.000000,339.624878 1.467159,314.426331 
	C34.093990,313.899872 66.253700,313.901276 98.413261,313.833191 
	C100.694687,313.828369 102.975029,313.312500 105.537231,313.034790 
	C106.194969,313.034637 106.571350,313.033997 107.301987,313.253571 
	C109.131943,313.644806 110.607628,313.965515 112.083336,313.965637 
	C243.014130,313.975555 373.944916,313.960815 504.920044,314.417847 
	C504.975891,337.214111 505.106049,359.541504 504.874847,381.865173 
	C504.838959,385.328827 503.716888,389.068756 502.111450,392.170898 
	C498.374878,399.391113 491.290283,400.930817 484.005371,400.946014 
	C427.357147,401.064148 370.708649,401.041382 313.718597,400.818909 
	C312.071625,400.407440 310.766357,400.093231 309.460907,400.092316 
	C271.737457,400.065796 234.014023,400.057922 196.290665,400.110321 
	C194.515579,400.112793 192.741302,400.696899 190.500107,401.006531 
	C134.674835,401.001984 79.315628,400.880402 23.957855,401.109344 
	C13.789079,401.151367 5.982713,398.107544 1.000000,389.000000 
M256.494385,348.026825 
	C249.684402,348.035614 242.868835,347.877258 236.066132,348.104187 
	C230.262711,348.297821 226.729279,352.029205 226.961639,357.144348 
	C227.193130,362.240295 230.400681,365.075134 236.336426,365.117371 
	C247.132294,365.194214 257.929352,365.186157 268.725403,365.123596 
	C274.578156,365.089691 278.568390,361.648926 278.545624,356.880737 
	C278.522064,351.942657 274.737000,348.359924 268.950073,348.081787 
	C265.138306,347.898529 261.311218,348.034119 256.494385,348.026825 
z"/>
<path fill="#FFFFFF" opacity="1.000000" stroke="none" 
	d="
M1.000000,389.468658 
	C5.982713,398.107544 13.789079,401.151367 23.957855,401.109344 
	C79.315628,400.880402 134.674835,401.001984 190.541000,401.472717 
	C191.095093,409.940460 191.141739,417.938416 191.109161,426.403381 
	C190.991577,435.240631 190.953217,443.610870 190.453796,451.987823 
	C186.827332,451.996613 183.647415,451.804352 180.499374,452.039337 
	C172.746399,452.618164 165.825897,455.266724 159.935608,460.531128 
	C146.276443,472.738861 147.496262,488.643982 148.340134,504.664001 
	C218.026505,504.664001 287.245667,504.664001 356.999786,504.664001 
	C356.999786,497.879364 357.137665,491.419403 356.970764,484.967377 
	C356.633911,471.944580 350.040192,462.656464 339.195190,456.074280 
	C331.396729,451.341187 322.707703,451.808472 314.052551,451.514587 
	C313.953094,442.678680 313.887878,434.309052 313.876221,425.477356 
	C313.973236,417.030914 314.016724,409.046539 314.060211,401.062195 
	C370.708649,401.041382 427.357147,401.064148 484.005371,400.946014 
	C491.290283,400.930817 498.374878,399.391113 502.111450,392.170898 
	C503.716888,389.068756 504.838959,385.328827 504.874847,381.865173 
	C505.106049,359.541504 504.975891,337.214111 504.964722,314.175842 
	C504.965057,313.463776 504.866028,312.980774 504.920288,312.515381 
	C504.932739,301.037018 504.890961,290.024048 504.911560,278.545410 
	C504.935760,266.718567 504.897552,255.357391 504.929626,243.532455 
	C504.959381,231.706375 504.918884,220.344070 504.878418,208.981750 
	C504.919220,167.569519 504.966949,126.157310 504.997955,84.745079 
	C505.014130,63.123161 504.974213,41.501171 505.013824,19.879314 
	C505.029694,11.210707 501.333252,5.038683 493.112000,1.339525 
	C499.660767,1.000000 506.321533,1.000000 513.000000,1.000000 
	C513.000000,159.020889 513.000000,317.041779 512.657837,475.341492 
	C510.137665,462.752960 504.152435,451.909851 494.743134,442.956757 
	C481.923676,430.758850 466.679413,425.085388 448.947845,425.973846 
	C434.454468,426.700073 421.691559,431.735138 411.072357,441.521057 
	C397.116821,454.381561 391.082214,470.583557 390.816559,489.536682 
	C390.669708,500.013885 393.062988,508.216553 403.000000,513.000000 
	C269.111511,513.000000 135.222992,513.000000 1.000000,513.000000 
	C1.000000,471.979706 1.000000,430.958527 1.000000,389.468658 
z"/>
<path fill="#7F8C8D" opacity="1.000000" stroke="none" 
	d="
M403.468658,513.000000 
	C393.062988,508.216553 390.669708,500.013885 390.816559,489.536682 
	C391.082214,470.583557 397.116821,454.381561 411.072357,441.521057 
	C421.691559,431.735138 434.454468,426.700073 448.947845,425.973846 
	C466.679413,425.085388 481.923676,430.758850 494.743134,442.956757 
	C504.152435,451.909851 510.137665,462.752960 512.657837,475.810120 
	C513.000000,484.354218 513.000000,492.708466 512.683716,501.670898 
	C508.911652,505.852722 505.455841,509.426361 502.000000,513.000000 
	C469.312439,513.000000 436.624878,513.000000 403.468658,513.000000 
M495.116699,482.395203 
	C493.854095,464.293365 476.448883,445.133392 460.984772,445.610535 
	C460.984772,450.028564 461.059875,454.480774 460.967285,458.929474 
	C460.826416,465.694305 457.665344,469.248932 452.031921,469.160156 
	C446.547180,469.073730 443.917816,465.831970 443.849365,458.966187 
	C443.804108,454.425812 443.840790,449.884613 443.840790,444.950958 
	C441.695190,445.287323 440.724426,445.362091 439.793976,445.596893 
	C424.133698,449.547791 407.671906,467.084229 408.820038,490.058167 
	C409.047760,494.614685 410.208862,496.010468 414.786591,495.970703 
	C438.091492,495.768311 461.399139,495.877563 484.705811,495.877655 
	C497.206116,495.877716 497.301544,495.763062 495.116699,482.395203 
z"/>
<path fill="#556080" opacity="1.000000" stroke="none" 
	d="
M1.000000,209.468658 
	C35.442036,209.057648 69.884071,209.115295 104.755692,209.671783 
	C105.101433,221.425232 105.017586,232.679825 104.469604,243.953613 
	C69.670311,243.981842 35.335155,243.990921 1.000000,244.000000 
	C1.000000,232.645767 1.000000,221.291550 1.000000,209.468658 
z"/>
<path fill="#8697CB" opacity="1.000000" stroke="none" 
	d="
M1.000000,244.468658 
	C35.335155,243.990921 69.670311,243.981842 104.544266,244.027893 
	C105.083061,244.082993 105.232353,244.231583 105.175446,244.674988 
	C105.119301,256.016876 105.120064,266.915344 105.103439,278.053345 
	C105.086052,278.292877 105.062691,278.772644 104.590347,278.779358 
	C99.966522,278.800446 95.815041,278.820221 91.663551,278.828278 
	C61.442368,278.886841 31.221184,278.943054 1.000000,279.000000 
	C1.000000,267.645782 1.000000,256.291534 1.000000,244.468658 
z"/>
<path fill="#566180" opacity="1.000000" stroke="none" 
	d="
M1.000000,279.468689 
	C31.221184,278.943054 61.442368,278.886841 91.663551,278.828278 
	C95.815041,278.820221 99.966522,278.800446 104.606888,279.269043 
	C105.149139,290.846069 105.202507,301.940186 105.255875,313.034271 
	C102.975029,313.312500 100.694687,313.828369 98.413261,313.833191 
	C66.253700,313.901276 34.093990,313.899872 1.467159,313.957672 
	C1.000000,302.645782 1.000000,291.291534 1.000000,279.468689 
z"/>
<path fill="#FFFFFF" opacity="1.000000" stroke="none" 
	d="
M502.482971,513.000000 
	C505.455841,509.426361 508.911652,505.852722 512.683716,502.139526 
	C513.000000,505.587189 513.000000,509.174408 513.000000,513.000000 
	C509.657440,513.000000 506.311676,513.000000 502.482971,513.000000 
z"/>
<path fill="#FFFFFF" opacity="1.000000" stroke="none" 
	d="
M11.517044,1.000000 
	C8.557219,4.594688 5.114437,8.189377 1.335828,11.892033 
	C1.000000,8.412791 1.000000,4.825583 1.000000,1.000000 
	C4.342551,1.000000 7.688319,1.000000 11.517044,1.000000 
z"/>
<path fill="#8697CB" opacity="1.000000" stroke="none" 
	d="
M105.008400,244.008713 
	C105.017586,232.679825 105.101433,221.425232 105.240005,209.726364 
	C106.792397,209.242767 108.290047,209.169037 109.787704,209.168976 
	C239.512741,209.163696 369.237793,209.163849 498.962830,209.167725 
	C500.294342,209.167755 501.625885,209.222061 503.430603,209.762939 
	C503.972046,221.518082 504.040253,232.761292 504.039856,244.012787 
	C503.971252,244.021072 503.833069,244.023697 503.379517,244.016693 
	C372.189331,244.006454 241.452744,244.002289 110.716156,244.009628 
	C108.888222,244.009735 107.060287,244.154388 105.232353,244.231583 
	C105.232353,244.231583 105.083061,244.082993 105.008400,244.008713 
z"/>
<path fill="#3D324C" opacity="1.000000" stroke="none" 
	d="
M359.142548,174.089142 
	C357.998016,174.079132 356.853485,174.069122 354.849487,174.072510 
	C350.306458,173.762955 346.622925,173.439987 342.554688,173.055603 
	C295.496735,162.594696 272.830597,110.350876 297.415131,69.419228 
	C308.369934,51.180183 324.550293,40.020382 345.894806,36.923855 
	C352.715485,36.880360 359.536163,36.836864 367.180969,36.843956 
	C397.649750,40.123112 424.214325,68.733727 425.972382,99.326530 
	C428.070557,135.838379 405.686035,165.431702 369.682373,173.163696 
	C365.889954,173.454147 362.516266,173.771652 359.142548,174.089142 
M343.585358,136.316177 
	C344.832489,135.916687 346.209686,135.736160 347.307068,135.084473 
	C361.444366,126.688934 375.577606,118.285217 389.629852,109.748573 
	C394.565948,106.749931 394.455963,103.432961 389.368073,100.351105 
	C375.589264,92.004944 361.761108,83.739410 347.904938,75.522148 
	C342.592133,72.371445 339.464966,73.955772 339.417175,80.000168 
	C339.284424,96.789932 339.258179,113.583275 339.527466,130.369781 
	C339.558868,132.327789 341.705780,134.251846 343.585358,136.316177 
z"/>
<path fill="#7C6598" opacity="1.000000" stroke="none" 
	d="
M370.101044,173.190750 
	C405.686035,165.431702 428.070557,135.838379 425.972382,99.326530 
	C424.214325,68.733727 397.649750,40.123112 367.606995,36.888168 
	C369.135529,36.555443 371.061554,35.948944 372.988861,35.944801 
	C401.321320,35.883839 429.653931,35.890347 457.986511,35.910862 
	C466.625305,35.917118 469.802521,38.875111 469.822510,47.606689 
	C469.910736,86.105446 469.904327,124.604607 469.830322,163.103424 
	C469.814514,171.332199 466.035675,174.787521 457.081787,174.807404 
	C428.416351,174.871048 399.750641,174.800537 370.602417,174.506454 
	C370.113556,173.884323 370.107300,173.537537 370.101044,173.190750 
z"/>
<path fill="#7D6599" opacity="1.000000" stroke="none" 
	d="
M345.573578,36.675144 
	C324.550293,40.020382 308.369934,51.180183 297.415131,69.419228 
	C272.830597,110.350876 295.496735,162.594696 342.554993,173.327789 
	C342.902954,174.021439 342.866028,174.381454 342.829102,174.741455 
	C313.830383,174.772339 284.831573,174.859650 255.833054,174.799210 
	C247.303787,174.781433 244.013992,171.331421 244.008865,162.897812 
	C243.985489,124.398819 243.986908,85.899811 244.007584,47.400822 
	C244.012161,38.848801 246.902008,35.921600 255.329681,35.914604 
	C283.662292,35.891079 311.994873,35.896824 340.327454,35.927662 
	C341.969269,35.929447 343.610718,36.252758 345.573578,36.675144 
z"/>
<path fill="#CFD2D0" opacity="1.000000" stroke="none" 
	d="
M35.800991,86.037331 
	C35.801941,84.052727 35.778877,82.556175 35.807964,81.060638 
	C35.950581,73.728546 38.777058,70.661926 45.959011,70.407753 
	C50.773529,70.237366 55.605701,70.221313 60.418167,70.420883 
	C67.110992,70.698441 70.127647,73.700104 70.369286,80.303230 
	C70.551537,85.283325 70.550667,90.280792 70.368645,95.260918 
	C70.125526,101.912598 66.995163,104.933327 60.419289,105.052994 
	C55.434029,105.143715 50.443783,105.157387 45.459328,105.045753 
	C39.136208,104.904144 36.059608,101.821442 35.834297,95.501648 
	C35.727753,92.513123 35.806324,89.517990 35.800991,86.037331 
z"/>
<path fill="#CFD2D0" opacity="1.000000" stroke="none" 
	d="
M200.506958,139.940338 
	C206.980713,141.405975 209.000702,143.615555 209.153168,149.418335 
	C209.288559,154.571487 209.288452,159.733536 209.158722,164.886887 
	C209.009399,170.819275 206.285675,174.073105 200.542252,174.436325 
	C194.748550,174.802689 188.892197,174.786774 183.100204,174.393997 
	C177.732437,174.029984 174.975006,171.056381 174.717438,165.677750 
	C174.447296,160.036697 174.431320,154.360687 174.724319,148.721786 
	C175.023865,142.956116 178.215027,140.095367 184.095657,139.942352 
	C189.415070,139.803940 194.740967,139.915222 200.506958,139.940338 
z"/>
<path fill="#CED2CF" opacity="1.000000" stroke="none" 
	d="
M105.068192,164.533142 
	C105.064537,159.422989 104.971359,154.761841 105.088509,150.105988 
	C105.261192,143.242996 108.463013,140.048035 115.263870,139.921722 
	C120.253632,139.829041 125.249367,139.803024 130.237381,139.936447 
	C136.257019,140.097488 139.560104,143.163910 139.842102,149.131516 
	C140.093155,154.443909 140.072342,159.784683 139.851669,165.099655 
	C139.610077,170.918320 136.679504,174.092468 130.908417,174.466507 
	C125.441612,174.820801 119.922203,174.811356 114.450058,174.515533 
	C108.366081,174.186646 106.233192,171.771301 105.068192,164.533142 
z"/>
<path fill="#CFD2D0" opacity="1.000000" stroke="none" 
	d="
M43.607841,140.008881 
	C49.703903,139.946838 55.362827,139.805710 61.014553,139.948792 
	C66.822159,140.095871 70.008965,143.051758 70.289017,148.840927 
	C70.561890,154.481659 70.550919,160.157654 70.263435,165.797714 
	C69.993248,171.098495 67.138023,174.085312 61.772327,174.424438 
	C55.976475,174.790726 50.120350,174.802460 44.326145,174.423752 
	C38.768143,174.060455 36.033115,170.891434 35.859859,165.265305 
	C35.696083,159.946976 35.790203,154.619446 35.831078,149.296417 
	C35.869183,144.334671 38.191555,141.126282 43.607841,140.008881 
z"/>
<path fill="#CFD2D0" opacity="1.000000" stroke="none" 
	d="
M194.916962,105.076126 
	C190.776245,105.065872 187.113037,105.186592 183.463760,105.013695 
	C178.373199,104.772507 175.151337,102.084961 174.868607,97.128769 
	C174.509949,90.841553 174.588257,84.506691 174.891190,78.212257 
	C175.101303,73.846573 177.890610,71.011261 182.221466,70.782608 
	C188.668686,70.442223 195.165634,70.397057 201.606430,70.794090 
	C206.443069,71.092239 208.957367,74.413651 209.106003,79.187317 
	C209.276657,84.667625 209.289001,90.159790 209.147339,95.641045 
	C208.990692,101.701096 205.856720,104.778992 199.888504,105.053352 
	C198.395386,105.121994 196.896790,105.071732 194.916962,105.076126 
z"/>
<path fill="#CED2CF" opacity="1.000000" stroke="none" 
	d="
M107.934402,72.918762 
	C110.217941,71.915390 112.179276,70.645370 114.203957,70.534729 
	C119.682777,70.235321 125.201881,70.188026 130.679947,70.492043 
	C136.507736,70.815468 139.571243,73.929764 139.832855,79.668152 
	C140.082870,85.152397 140.106827,90.669411 139.813675,96.149742 
	C139.509262,101.840569 136.165894,104.886467 130.425201,105.031403 
	C124.932777,105.170074 119.432167,105.130302 113.938278,105.017242 
	C109.853157,104.933167 106.213310,102.955772 105.871979,98.947212 
	C105.242455,91.554138 105.608536,84.067245 105.779297,76.624474 
	C105.805946,75.462982 106.991455,74.328087 107.934402,72.918762 
z"/>
<path fill="#ECC21A" opacity="1.000000" stroke="none" 
	d="
M115.138351,31.407310 
	C119.609772,26.564970 131.370895,24.925425 135.921600,28.908478 
	C137.954117,30.687437 139.365921,34.217739 139.404510,36.976368 
	C139.456085,40.663368 136.774918,43.560432 132.827133,43.948135 
	C128.886505,44.335129 124.823669,44.462402 120.914116,43.947083 
	C115.228813,43.197704 112.957069,38.138554 115.138351,31.407310 
z"/>
<path fill="#2FA6CA" opacity="1.000000" stroke="none" 
	d="
M166.448898,27.026405 
	C169.700226,27.056971 172.546860,26.847887 175.319122,27.209278 
	C180.183136,27.843346 183.192596,31.469532 183.034332,36.008770 
	C182.873505,40.621227 179.721954,43.764267 174.701553,44.133827 
	C172.394058,44.303684 170.065887,44.258339 167.748703,44.218330 
	C161.502808,44.110493 157.863159,41.416851 157.308868,36.559467 
	C156.770859,31.844713 159.945236,28.373398 166.448898,27.026405 
z"/>
<path fill="#FC5364" opacity="1.000000" stroke="none" 
	d="
M96.105347,34.331291 
	C95.764717,41.441872 93.269043,44.038055 86.722748,44.238663 
	C83.582191,44.334904 80.177635,44.797874 77.361328,43.787876 
	C74.896149,42.903805 71.901100,40.499561 71.304169,38.204094 
	C70.639992,35.650093 71.621582,31.828512 73.311974,29.680227 
	C76.618919,25.477509 89.990639,25.763281 93.712410,29.655058 
	C94.794861,30.786957 95.285614,32.484695 96.105347,34.331291 
z"/>
<path fill="#7DCE9D" opacity="1.000000" stroke="none" 
	d="
M44.555855,44.179279 
	C41.130478,44.192810 38.135471,44.338551 35.169956,44.106823 
	C30.565561,43.747036 27.228827,40.468891 27.171383,36.131077 
	C27.111553,31.613113 29.407087,28.224779 33.854130,27.518644 
	C37.875103,26.880163 42.153633,26.874403 46.176388,27.501648 
	C50.615788,28.193861 53.086353,31.556881 52.863827,36.075905 
	C52.630436,40.815498 49.831554,43.606880 44.555855,44.179279 
z"/>
<path fill="#6E80AC" opacity="1.000000" stroke="none" 
	d="
M504.108459,244.004517 
	C504.040253,232.761292 503.972046,221.518082 503.884766,209.836533 
	C504.033661,209.326401 504.201538,209.254593 504.623901,209.082275 
	C504.918884,220.344070 504.959381,231.706375 504.741882,243.534760 
	C504.483887,244.000809 504.108459,244.004517 504.108459,244.004517 
z"/>
<path fill="#5D587D" opacity="1.000000" stroke="none" 
	d="
M343.295898,174.816833 
	C342.866028,174.381454 342.902954,174.021439 342.939636,173.389236 
	C346.622925,173.439987 350.306458,173.762955 354.420502,174.090332 
	C351.154877,174.360580 347.458771,174.626404 343.295898,174.816833 
z"/>
<path fill="#5D587D" opacity="1.000000" stroke="none" 
	d="
M369.682373,173.163696 
	C370.107300,173.537537 370.113556,173.884323 370.145203,174.487808 
	C366.712555,174.664871 363.254486,174.585236 359.469482,174.297363 
	C362.516266,173.771652 365.889954,173.454147 369.682373,173.163696 
z"/>
<path fill="#8697CB" opacity="1.000000" stroke="none" 
	d="
M105.537231,313.034790 
	C105.202507,301.940186 105.149139,290.846069 105.079239,279.262329 
	C105.062691,278.772644 105.086052,278.292877 105.428101,278.110657 
	C106.208527,277.979370 106.646904,278.030334 107.425789,278.295135 
	C110.076385,278.668976 112.386429,278.968384 114.696564,278.969055 
	C244.441772,279.006439 374.187012,279.018921 503.960449,279.030273 
	C503.988708,279.026672 504.038422,278.998901 504.025940,279.467529 
	C503.987213,290.955475 503.960938,301.974823 503.470093,312.993683 
	C370.986267,313.006592 238.967010,313.019989 106.947731,313.033386 
	C106.571350,313.033997 106.194969,313.034637 105.537231,313.034790 
z"/>
<path fill="#5F6063" opacity="1.000000" stroke="none" 
	d="
M313.718597,400.818909 
	C314.016724,409.046539 313.973236,417.030914 313.419495,425.500793 
	C272.335602,425.969666 231.761993,425.953033 191.188385,425.936401 
	C191.141739,417.938416 191.095093,409.940460 191.007553,401.476318 
	C192.741302,400.696899 194.515579,400.112793 196.290665,400.110321 
	C234.014023,400.057922 271.737457,400.065796 309.460907,400.092316 
	C310.766357,400.093231 312.071625,400.407440 313.718597,400.818909 
z"/>
<path fill="#D0D3D1" opacity="1.000000" stroke="none" 
	d="
M256.992676,348.026886 
	C261.311218,348.034119 265.138306,347.898529 268.950073,348.081787 
	C274.737000,348.359924 278.522064,351.942657 278.545624,356.880737 
	C278.568390,361.648926 274.578156,365.089691 268.725403,365.123596 
	C257.929352,365.186157 247.132294,365.194214 236.336426,365.117371 
	C230.400681,365.075134 227.193130,362.240295 226.961639,357.144348 
	C226.729279,352.029205 230.262711,348.297821 236.066132,348.104187 
	C242.868835,347.877258 249.684402,348.035614 256.992676,348.026886 
z"/>
<path fill="#7D96B8" opacity="1.000000" stroke="none" 
	d="
M107.301987,313.253571 
	C238.967010,313.019989 370.986267,313.006592 503.703308,312.995605 
	C504.401031,312.997955 504.866028,312.980774 504.866028,312.980774 
	C504.866028,312.980774 504.965057,313.463776 504.920380,313.705750 
	C373.944916,313.960815 243.014130,313.975555 112.083336,313.965637 
	C110.607628,313.965515 109.131943,313.644806 107.301987,313.253571 
z"/>
<path fill="#95A5A5" opacity="1.000000" stroke="none" 
	d="
M314.086792,451.980896 
	C322.707703,451.808472 331.396729,451.341187 339.195190,456.074280 
	C350.040192,462.656464 356.633911,471.944580 356.970764,484.967377 
	C357.137665,491.419403 356.999786,497.879364 356.999786,504.664001 
	C287.245667,504.664001 218.026505,504.664001 148.340134,504.664001 
	C147.496262,488.643982 146.276443,472.738861 159.935608,460.531128 
	C165.825897,455.266724 172.746399,452.618164 180.499374,452.039337 
	C183.647415,451.804352 186.827332,451.996613 190.928146,451.994995 
	C232.604630,451.990601 273.345703,451.985748 314.086792,451.980896 
z"/>
<path fill="#7F8C8D" opacity="1.000000" stroke="none" 
	d="
M314.052551,451.514587 
	C273.345703,451.985748 232.604630,451.990601 191.389191,451.988312 
	C190.953217,443.610870 190.991577,435.240631 191.109161,426.403381 
	C231.761993,425.953033 272.335602,425.969666 313.365967,425.962860 
	C313.887878,434.309052 313.953094,442.678680 314.052551,451.514587 
z"/>
<path fill="#6B8CAC" opacity="1.000000" stroke="none" 
	d="
M504.039856,244.012787 
	C504.108459,244.004517 504.483887,244.000809 504.671631,243.998505 
	C504.897552,255.357391 504.935760,266.718567 504.708893,278.541687 
	C504.443817,279.003601 504.038422,278.998901 504.038422,278.998901 
	C504.038422,278.998901 503.988708,279.026672 503.971130,278.753540 
	C503.950470,278.296112 503.947357,278.111786 503.959778,277.463562 
	C503.927887,266.007690 503.880463,255.015686 503.833069,244.023697 
	C503.833069,244.023697 503.971252,244.021072 504.039856,244.012787 
z"/>
<path fill="#66789F" opacity="1.000000" stroke="none" 
	d="
M504.025940,279.467529 
	C504.038422,278.998901 504.443817,279.003601 504.646484,279.007324 
	C504.890961,290.024048 504.932739,301.037018 504.920288,312.515381 
	C504.866028,312.980774 504.401031,312.997955 504.167847,312.996033 
	C503.960938,301.974823 503.987213,290.955475 504.025940,279.467529 
z"/>
<path fill="#BCC2C6" opacity="1.000000" stroke="none" 
	d="
M495.157288,482.836670 
	C497.301544,495.763062 497.206116,495.877716 484.705811,495.877655 
	C461.399139,495.877563 438.091492,495.768311 414.786591,495.970703 
	C410.208862,496.010468 409.047760,494.614685 408.820038,490.058167 
	C407.671906,467.084229 424.133698,449.547791 439.793976,445.596893 
	C440.724426,445.362091 441.695190,445.287323 443.840790,444.950958 
	C443.840790,449.884613 443.804108,454.425812 443.849365,458.966187 
	C443.917816,465.831970 446.547180,469.073730 452.031921,469.160156 
	C457.665344,469.248932 460.826416,465.694305 460.967285,458.929474 
	C461.059875,454.480774 460.984772,450.028564 460.984772,445.610535 
	C476.448883,445.133392 493.854095,464.293365 495.157288,482.836670 
z"/>
<path fill="#90BAE1" opacity="1.000000" stroke="none" 
	d="
M503.379486,244.016693 
	C503.880463,255.015686 503.927887,266.007690 503.497375,277.495789 
	C487.022217,278.005707 471.025024,278.029175 455.027802,278.031799 
	C339.046967,278.050659 223.066116,278.065308 107.085281,278.081299 
	C106.646904,278.030334 106.208527,277.979370 105.445480,277.871124 
	C105.120064,266.915344 105.119301,256.016876 105.175446,244.674988 
	C107.060287,244.154388 108.888222,244.009735 110.716156,244.009628 
	C241.452744,244.002289 372.189331,244.006454 503.379486,244.016693 
z"/>
<path fill="#CED1CE" opacity="1.000000" stroke="none" 
	d="
M343.228638,136.253906 
	C341.705780,134.251846 339.558868,132.327789 339.527466,130.369781 
	C339.258179,113.583275 339.284424,96.789932 339.417175,80.000168 
	C339.464966,73.955772 342.592133,72.371445 347.904938,75.522148 
	C361.761108,83.739410 375.589264,92.004944 389.368073,100.351105 
	C394.455963,103.432961 394.565948,106.749931 389.629852,109.748573 
	C375.577606,118.285217 361.444366,126.688934 347.307068,135.084473 
	C346.209686,135.736160 344.832489,135.916687 343.228638,136.253906 
z"/>
<path fill="#7D96B8" opacity="1.000000" stroke="none" 
	d="
M107.425789,278.295135 
	C223.066116,278.065308 339.046967,278.050659 455.027802,278.031799 
	C471.025024,278.029175 487.022217,278.005707 503.481842,277.959656 
	C503.947357,278.111786 503.950470,278.296112 503.942902,278.757141 
	C374.187012,279.018921 244.441772,279.006439 114.696564,278.969055 
	C112.386429,278.968384 110.076385,278.668976 107.425789,278.295135 
z"/>
</svg>